<?xml version="1.0" encoding="utf-8"?>
<!-- Generator: Adobe Illustrator 21.1.0, SVG Export Plug-In . SVG Version: 6.00 Build 0)  -->
<svg version="1.1" id="Layer_1" xmlns="http://www.w3.org/2000/svg" xmlns:xlink="http://www.w3.org/1999/xlink" x="0px" y="0px"
	 viewBox="0 0 250 63" style="enable-background:new 0 0 250 63;" xml:space="preserve">
<style type="text/css">
	.st0{fill-rule:evenodd;clip-rule:evenodd;fill:#FFFFFF;}
</style>
<g>
	<path class="st0" d="M146.3,18.3c-8.1,3.6-15,3.9-15,3.9l0,0V5.9h6.4l-3.8-5.5l-7,0.1l-1.5,2.2l-1.5-2.2l-7-0.1L113,5.9h6.4v16.3
		l0,0c0,0-6.9-0.3-15-3.9l0,0l-4.7,6.5l0,0c0,0,1.2,0.6,6.3,2.4l0,0l1.5-2.3l0,0c0,0,7.8,2.8,17.8,2.7c10.1,0.1,17.8-2.7,17.8-2.7
		l0,0l1.5,2.3l0,0c5.1-1.8,6.3-2.4,6.3-2.4l0,0L146.3,18.3L146.3,18.3L146.3,18.3z M124.7,26.2c-8.8,0.3-17.7-2.8-17.7-2.8l0,0
		l-1.5,2.2l0,0c-2.9-0.9-4-1.5-4-1.5l0,0l3.1-4.4l0,0c7.8,3.4,15.7,3.7,15.7,3.7l0,0V4.7H115l2.3-3.2h5.8l1.6,2.4V26.2L124.7,26.2
		L124.7,26.2z M143.6,23.4c0,0-8.9,3.1-17.7,2.8l0,0V3.9l1.6-2.4h5.8l2.3,3.2h-5.4v18.7l0,0c0,0,7.9-0.3,15.7-3.7l0,0l3.1,4.4l0,0
		c0,0-1,0.6-4,1.5l0,0L143.6,23.4L143.6,23.4L143.6,23.4z"/>
	<path class="st0" d="M244.6,43.7c0,0-2.4,1.3-6.4,6l0,0h-2.4l0,0c0,0-0.6,0.2-0.6-0.6l0,0V43l0,0c0,0-0.1-0.6,0.5-0.6l0,0h1.8l0,0
		c0,0,0.5-0.1,0.9,0.7l0,0l0.2,0.5l0,0c0,0,0.1,0.6,0.9,0.4c0,0,0.7,0.1,0.5-0.7c-0.2-0.8,0-0.1,0-0.1l0,0l-1-3.1l0,0
		c0,0-0.1-0.4-0.6-0.4l0,0l-0.5,0l0,0c0,0-0.5,0-0.4,0.6c0,0,0.1,0.7-0.6,0.7l0,0h-1.1l0,0c0,0-0.6,0.1-0.6-0.9l0,0v-1.8l0,0
		c0,0-0.1-0.5,0.7-0.5l0,0h3.6l0,0c0,0,0.8-0.3,1.4,0.9l0,0l0.3,0.6l0,0c0,0,0,0.6,0.8,0.4c0,0,0.9,0.1,0.6-0.7l0,0l-0.7-2l0,0
		c0,0,0-0.5-0.6-0.5l0,0h-10.4l0,0c0,0-0.6-0.1-0.6,0.5l0,0v0.4l0,0c0,0-0.1,0.3,0.6,0.5c0,0,0.8,0,0.8,1.1l0,0l-0.1,9.9l0,0
		c0,0,0,0.9-0.6,1.1c0,0-0.7-0.2-0.7,0.6c0,0-0.3,0.6,0.7,0.7l0,0h5l0,0c0,0,0.9,0,0.4,0.6c0,0-1.8,2.9-5.2,4.9c0,0-2.2,1.4-6.1,1.4
		l0,0H23.3l0,0c0,0-4.3,0.4-6.5-1.8l0,0l-3.4-3.7l0,0c0,0-0.3-0.5,0.2-0.6c0,0,4.2-0.8,5.6-3.6c1.5-2.8,1.6-4.8,1.6-6.9l0,0v-9.4
		l0,0c0,0-0.1-0.7,0.7-0.7l0,0h0.8l0,0c0,0,0.4,0.2,0.4-0.7l0,0v-0.4l0,0c0,0,0.3-0.6-0.5-0.6l0,0h-7.2l0,0c0,0-0.5-0.2-0.6,0.5l0,0
		v0.5l0,0c0,0-0.2,0.6,0.6,0.6l0,0h0.6l0,0c0,0,0.9-0.1,0.9,1l0,0v11.3l0,0c0,0,0.5,5.9-4.8,6.7c0,0-3.5-5.1-5.6-6.3
		c0,0-3-2.3-5.4-0.2c0,0-2.3,2.7,1.2,5.7c0,0,3.6,2.9,9.4,2.7c0,0,3.1,4.7,3.7,5.4c0,0,2.3,2.7,4.2,3.5c1.9,0.8,2.2,1.3,8.8,1.3l0,0
		h193.2l0,0c0,0,5,0.3,7.8-1.4c0,0,2.3-1.1,4.8-4l0,0l5.1-6.1l0,0c0,0,5.2,0.1,8-1.7c0,0,2.9-1.5,3.1-3.8
		C250.2,43.3,247.9,42.1,244.6,43.7L244.6,43.7L244.6,43.7L244.6,43.7z M5.9,50c-2.2-1-1.6-2.5-1.6-2.5c0.5-1.1,2-0.3,2-0.3
		c1.9,0.8,3.8,3.7,3.8,3.7C7.5,51.2,5.9,50,5.9,50L5.9,50L5.9,50L5.9,50z M244.5,48.9c-1.5,1-4.7,0.9-4.7,0.9
		c0.5-0.9,2.5-2.8,2.5-2.8c1.6-1.4,2.7-0.7,2.7-0.7C246.6,47.6,244.5,48.9,244.5,48.9L244.5,48.9L244.5,48.9L244.5,48.9z"/>
	<path class="st0" d="M37.4,50.3c0,0,0-0.4-0.6-0.5c0,0-0.7,0-1-1l0,0l-4-11.8l0,0c0,0,0-0.6-0.6-0.6l0,0h-3.2l0,0
		c0,0-0.4,0-0.7,0.7l0,0L22.7,49l0,0c0,0,0,0.8-1.4,0.8c0,0-0.6,0-0.5,0.6l0,0v0.4l0,0c0,0-0.1,0.5,0.6,0.5l0,0h3.8l0,0
		c0,0,0.5,0,0.5-0.4l0,0v-0.4l0,0c0,0,0.1-0.5-0.5-0.6c0,0-1-0.1-0.7-1.1l0,0l0.6-1.3h6.3l0.6,1.5l0,0c0,0,0.2,0.7-0.2,0.8
		c0,0-0.7,0-0.7,0.4l0,0v0.5l0,0c0,0-0.2,0.5,0.7,0.5l0,0h5l0,0c0,0,0.6,0.2,0.6-0.5l0,0L37.4,50.3L37.4,50.3L37.4,50.3z M30.5,45.9
		h-4l0,0c-1,0-0.5-0.9-0.5-0.9l0,0l2.1-5.5l0,0c0.4-0.8,0.8,0,0.8,0l0,0l1.8,5.4l0,0C31.2,46.1,30.5,45.9,30.5,45.9L30.5,45.9
		L30.5,45.9L30.5,45.9z"/>
	<path class="st0" d="M130.5,49.7h-2.4l0,0c0,0-0.6,0.2-0.6-0.6l0,0V43l0,0c0,0-0.1-0.6,0.5-0.6l0,0h1.8l0,0c0,0,0.5-0.1,0.9,0.7
		l0,0l0.2,0.5l0,0c0,0,0.1,0.6,0.9,0.4c0,0,0.7,0.1,0.5-0.7c-0.2-0.8,0-0.1,0-0.1l0,0l-1-3.1l0,0c0,0-0.1-0.4-0.6-0.4l0,0l-0.5,0
		l0,0c0,0-0.5,0-0.4,0.6c0,0,0.1,0.7-0.6,0.7l0,0h-1l0,0c0,0-0.6,0.1-0.6-0.9l0,0v-1.8l0,0c0,0-0.1-0.5,0.7-0.5l0,0h3.6l0,0
		c0,0,0.8-0.3,1.4,0.9l0,0l0.3,0.6l0,0c0,0,0,0.6,0.8,0.4c0,0,0.9,0.1,0.6-0.7l0,0l-0.7-2l0,0c0,0,0-0.5-0.6-0.5l0,0h-10.4l0,0
		c0,0-0.6-0.1-0.6,0.5l0,0v0.3l0,0c0,0-0.1,0.3,0.6,0.5c0,0,0.8,0,0.8,1l0,0l-0.1,9.9l0,0c0,0,0,0.9-0.6,1.1c0,0-0.7-0.2-0.7,0.6
		c0,0-0.3,0.6,0.7,0.7l0,0h5h5.5l0,0c0,0,0.4,0.1,0.6-0.3l0,0l0.9-2.1l0,0c0,0,0.3-0.7-0.3-0.7l0,0h-0.7l0,0c0,0-0.4-0.1-0.5,0.3
		l0,0l-0.4,0.7l0,0c0,0-0.1,0.6-1.1,0.6l0,0H130.5L130.5,49.7L130.5,49.7z"/>
	<path class="st0" d="M46.8,49.7h-2.4l0,0c0,0-0.6,0.2-0.6-0.6l0,0V43l0,0c0,0-0.1-0.6,0.5-0.6l0,0h1.8l0,0c0,0,0.5-0.1,0.9,0.7l0,0
		l0.2,0.5l0,0c0,0,0.1,0.6,0.9,0.4c0,0,0.7,0.1,0.5-0.7c-0.2-0.8,0-0.1,0-0.1l0,0l-1-3.1l0,0c0,0-0.1-0.4-0.6-0.4l0,0l-0.5,0l0,0
		c0,0-0.5,0-0.4,0.6c0,0,0.1,0.7-0.6,0.7l0,0h-1l0,0c0,0-0.6,0.1-0.6-0.9l0,0v-1.8l0,0c0,0-0.1-0.5,0.7-0.5l0,0h3.6l0,0
		c0,0,0.8-0.3,1.4,0.9l0,0l0.3,0.6l0,0c0,0,0,0.6,0.8,0.4c0,0,0.9,0.1,0.6-0.7l0,0l-0.7-2l0,0c0,0,0-0.5-0.6-0.5l0,0H39.6l0,0
		c0,0-0.6-0.1-0.6,0.5l0,0v0.3l0,0c0,0-0.1,0.3,0.6,0.5c0,0,0.8,0,0.8,1l0,0l-0.1,9.9l0,0c0,0,0,0.9-0.6,1.1c0,0-0.7-0.2-0.7,0.6
		c0,0-0.3,0.6,0.7,0.7l0,0h5h5.5l0,0c0,0,0.4,0.1,0.6-0.3l0,0l0.9-2.1l0,0c0,0,0.3-0.7-0.3-0.7l0,0h-0.7l0,0c0,0-0.3-0.1-0.5,0.3
		l0,0L49.7,49l0,0c0,0-0.1,0.6-1.1,0.6l0,0H46.8L46.8,49.7L46.8,49.7z"/>
	<path class="st0" d="M76.7,49.8h-2.4l0,0c0,0-0.6,0.2-0.6-0.6l0,0v-6.1l0,0c0,0-0.1-0.6,0.5-0.6l0,0H76l0,0c0,0,0.5-0.1,0.9,0.7
		l0,0l0.2,0.5l0,0c0,0,0.1,0.6,0.9,0.4c0,0,0.7,0.1,0.5-0.7c-0.2-0.8,0-0.1,0-0.1l0,0l-1-3.1l0,0c0,0-0.1-0.4-0.6-0.4l0,0l-0.5,0
		l0,0c0,0-0.5,0-0.4,0.6c0,0,0.1,0.7-0.6,0.7l0,0h-1.1l0,0c0,0-0.6,0.1-0.6-0.9l0,0v-1.8l0,0c0,0-0.1-0.5,0.7-0.5l0,0H78l0,0
		c0,0,0.8-0.3,1.4,0.9l0,0l0.3,0.6l0,0c0,0,0,0.6,0.8,0.4c0,0,0.9,0.1,0.6-0.7l0,0l-0.7-2l0,0c0,0,0-0.5-0.6-0.5l0,0H69.4l0,0
		c0,0-0.6-0.1-0.6,0.5l0,0v0.4l0,0c0,0-0.1,0.3,0.6,0.5c0,0,0.8,0,0.8,1.1l0,0L70.1,49l0,0c0,0,0,0.9-0.6,1.1c0,0-0.7-0.2-0.7,0.6
		c0,0-0.3,0.6,0.7,0.7l0,0h5H80l0,0c0,0,0.4,0.1,0.6-0.3l0,0l0.9-2.1l0,0c0,0,0.3-0.7-0.4-0.7l0,0h-0.7l0,0c0,0-0.3-0.1-0.5,0.3l0,0
		l-0.4,0.7l0,0c0,0-0.1,0.6-1.1,0.6l0,0H76.7L76.7,49.8L76.7,49.8z"/>
	<path class="st0" d="M59.9,36.2c0,0-6.8,0-7.2,7.5c-0.5,7.6,6.9,7.7,6.9,7.7s2.5,0.3,5.8-1.9c0,0,0.5-0.3,0.5-1l0,0l0.1-1.4l0,0
		c0,0-0.3-1.2,0.9-1.2c0,0,0.5,0,0.5-0.6l0,0v-0.2l0,0c0,0,0-0.5-0.8-0.5l0,0h-5.3l0,0c0,0-0.6-0.1-0.6,0.4l0,0v0.4l0,0
		c0,0,0,0.5,0.6,0.5c0,0,1.3-0.1,1.3,1.2c0,0,0.3,3.1-3,3.1s-3.2-3-3.3-7c-0.1-3.9,1.1-5.8,3.8-5.7c2.7,0,3.6,2.2,3.9,2.7
		c0,0,0.2,0.5,0.8,0.4l0,0l0.7-0.3l0,0c0,0,0.4,0.1,0.2-0.5l0,0l-0.9-2.9l0,0c0,0,0-0.5-0.5-0.4c0,0-0.3,0-0.5,0.3
		c0,0,0.1,0.8-1.2,0.2C62.7,37,61.6,36.2,59.9,36.2L59.9,36.2L59.9,36.2L59.9,36.2z"/>
	<path class="st0" d="M99.6,50.4c0,0,0.1-0.4-0.6-0.4l0,0l-0.3,0l0,0c0,0-0.9,0.1-1.6-1.1c0,0-2-3.7-3.2-4.5c0,0-0.4-0.3,0-0.4
		c0,0,1.6-0.3,2.6-1.3c0,0,1.1-0.5,1.1-2.7c0,0,0.2-3.3-4.6-3.4l0,0h-8.9l0,0l0,0l0,0c0,0-0.6-0.1-0.6,0.5l0,0v0.3l0,0
		c0,0-0.1,0.3,0.6,0.5c0,0,0.8,0,0.8,1l0,0l-0.1,9.9l0,0c0,0,0.1,1.1-0.7,1.1c0,0-0.7-0.1-0.7,0.6c0,0-0.2,0.7,0.7,0.8l0,0H89l0,0
		c0,0,0.7,0.1,0.7-0.4l0,0l0-0.6l0,0c0,0,0-0.4-0.7-0.4c-0.2-0.1-0.7-0.3-0.7-0.9l0,0V45l0,0c0,0-0.1-0.6,0.5-0.6l0,0l0,0l1,0l0,0
		c0,0,1.2-0.1,1.9,1.2l0,0l2.2,4.1l0,0c0,0,0.7,1.6,2.5,1.7l0,0h2.8l0,0c0,0,0.4,0.1,0.4-0.5l0,0L99.6,50.4L99.6,50.4L99.6,50.4z
		 M91.5,43l-2.6,0v0l0,0c0,0,0,0,0,0l0,0l-0.1,0l0,0l0,0c-0.2,0-0.5-0.1-0.5-0.9l0,0v-3.7l0,0c0,0-0.1-0.5,0.7-0.5l0,0l2.9,0.1l0,0
		c0,0,2.4,0,2.4,2.2C94.3,42.3,93.2,43,91.5,43L91.5,43L91.5,43L91.5,43z"/>
	<path class="st0" d="M229.5,50.4c0,0,0.1-0.4-0.6-0.4l0,0l-0.3,0l0,0c0,0-0.9,0.1-1.6-1.1c0,0-2-3.7-3.2-4.5c0,0-0.4-0.3,0-0.4
		c0,0,1.6-0.3,2.6-1.3c0,0,1.1-0.5,1.1-2.7c0,0,0.2-3.3-4.6-3.4l0,0H214l0,0l0,0l0,0c0,0-0.6-0.1-0.6,0.5l0,0v0.3l0,0
		c0,0-0.1,0.3,0.6,0.5c0,0,0.8,0,0.8,1l0,0l-0.1,9.9l0,0c0,0,0.1,1.1-0.7,1.1c0,0-0.7-0.1-0.7,0.6c0,0-0.2,0.7,0.7,0.8l0,0h4.9l0,0
		c0,0,0.7,0.1,0.7-0.4l0,0l0-0.6l0,0c0,0,0-0.4-0.7-0.4c-0.2-0.1-0.7-0.3-0.7-0.9l0,0V45l0,0c0,0-0.1-0.6,0.5-0.6l0,0l0,0l1,0l0,0
		c0,0,1.2-0.1,1.9,1.2l0,0l2.2,4.1l0,0c0,0,0.7,1.6,2.5,1.7l0,0h2.8l0,0c0,0,0.4,0.1,0.4-0.5l0,0L229.5,50.4L229.5,50.4L229.5,50.4z
		 M221.4,43l-2.6,0l0,0l0,0c0,0,0,0,0,0l0,0l-0.1,0l0,0l0,0c-0.2,0-0.5-0.1-0.5-0.9l0,0v-3.7l0,0c0,0-0.1-0.5,0.7-0.5l0,0l2.9,0.1
		l0,0c0,0,2.4,0,2.4,2.2C224.3,42.3,223.1,43,221.4,43L221.4,43L221.4,43L221.4,43z"/>
	<path class="st0" d="M106.9,45c0.3,0,0.6-0.3,0.6-0.6l0,0v-1.3l0,0c0-0.3-0.3-0.6-0.6-0.6l0,0h-5.7l0,0c-0.3,0-0.6,0.3-0.6,0.6l0,0
		v1.3l0,0c0,0.3,0.3,0.6,0.6,0.6l0,0H106.9L106.9,45L106.9,45z"/>
	<path class="st0" d="M110.1,36.4c0,0-0.4,0-0.4,0.4l0,0v0.4l0,0c0,0-0.1,0.5,0.6,0.4c0,0,1.1-0.1,1.1,1l0,0v10.2l0,0
		c0,0,0.1,0.8-0.8,0.8c0,0-0.6,0-0.6,0.4l0,0v0.6l0,0c0,0,0,0.5,0.5,0.6l0,0h9.4l0,0c0,0,0.3,0.1,0.7-0.6l0,0l0.9-2.1l0,0
		c0,0,0.2-0.6-0.3-0.6l0,0h-0.7l0,0c0,0-0.4,0-0.5,0.3l0,0l-0.3,0.7l0,0c0,0-0.4,0.8-1.2,0.7l0,0h-2.8l0,0c0,0-0.8,0.1-0.8-0.7l0,0
		V38.7l0,0c0,0-0.1-0.9,0.7-1l0,0h0.4l0,0c0,0,0.4,0.1,0.4-0.5l0,0v-0.4l0,0c0,0,0.1-0.5-0.5-0.5l0,0H110.1L110.1,36.4L110.1,36.4z"
		/>
	<path class="st0" d="M188.8,36.4c0,0-0.4,0-0.4,0.4l0,0v0.4l0,0c0,0-0.1,0.5,0.6,0.4c0,0,1.1-0.1,1.1,1l0,0v10.2l0,0
		c0,0,0.1,0.8-0.8,0.8c0,0-0.6,0-0.6,0.4l0,0v0.6l0,0c0,0,0,0.5,0.5,0.6l0,0h9.5l0,0c0,0,0.3,0.1,0.7-0.6l0,0l0.9-2.1l0,0
		c0,0,0.2-0.6-0.3-0.6l0,0h-0.7l0,0c0,0-0.4,0-0.5,0.3l0,0l-0.3,0.7l0,0c0,0-0.4,0.8-1.2,0.7l0,0h-2.8l0,0c0,0-0.8,0.1-0.8-0.7l0,0
		V38.7l0,0c0,0-0.1-0.9,0.7-1l0,0h0.4l0,0c0,0,0.4,0.1,0.4-0.5l0,0v-0.4l0,0c0,0,0.1-0.5-0.5-0.5l0,0H188.8L188.8,36.4L188.8,36.4z"
		/>
	<path class="st0" d="M146.1,29.7c0,0-9.3-0.5-9.5,11c0,0-0.4,10,9.2,10.5c0,0,2.2,0.1,4.2-1.1c0,0,0.6-0.3,0.8,0.2
		c0,0,0.1,0.7,0.8,0.6c0,0,0.7,0,0.8-0.7l0,0l1.3-4l0,0c0,0,0.2-0.7-0.3-0.7l0,0l-0.5,0l0,0c0,0-0.4,0-0.6,0.5c0,0-0.7,1.6-1.5,2.2
		c0,0-1.3,1.6-4.3,1.5c0,0-5.6,0.1-5.4-9.1c0,0-0.5-9.6,5.6-9.5c0,0,2.9-0.2,5,2.9c0,0,0.2,0.6,0.9,0.6l0,0h0.6l0,0
		c0,0,0.5,0,0.3-0.8l0,0l-0.9-3.6l0,0c0,0-0.1-0.5-0.5-0.5l0,0h-0.7l0,0c0,0-0.3,0.1-0.2,0.5c0,0,0.1,0.5-0.1,0.6c0,0-0.2,0.3-0.7,0
		C150.4,30.9,148.7,29.7,146.1,29.7L146.1,29.7L146.1,29.7L146.1,29.7z"/>
	<path class="st0" d="M159.4,46.6C159.4,46.7,159.4,46.7,159.4,46.6C159.4,46.7,159.4,46.7,159.4,46.6L159.4,46.6L159.4,46.6
		L159.4,46.6z"/>
	<path class="st0" d="M170.2,43.7c-0.2-7.4-7.4-7.4-7.4-7.4s-7.2,0-7.4,7.4c0,0-0.1,7.3,7.4,7.6C170.3,51,170.2,43.7,170.2,43.7
		L170.2,43.7L170.2,43.7L170.2,43.7z M166.3,46.8c-0.7,3.6-3.5,3.1-3.5,3.1s-2.8,0.5-3.5-3.1c-0.6-3.4-0.1-0.5,0-0.1
		c-0.1-0.4-0.6-3.4,0.2-6.9c0,0,0.6-2.4,3.3-2.3c2.7-0.1,3.3,2.3,3.3,2.3c0.8,3.5,0.3,6.5,0.2,6.9C166.4,46.2,166.9,43.4,166.3,46.8
		L166.3,46.8L166.3,46.8L166.3,46.8z"/>
	<path class="st0" d="M166.3,46.6C166.3,46.7,166.3,46.7,166.3,46.6C166.3,46.7,166.3,46.7,166.3,46.6L166.3,46.6L166.3,46.6
		L166.3,46.6z"/>
	<path class="st0" d="M172.3,36.4c0,0-0.5,0-0.5,0.4l0,0v0.4l0,0c0,0,0,0.4,0.6,0.4l0,0l0.3,0l0,0c0,0,0.7-0.1,0.7,1l0,0v7.5l0,0
		c0,0,0.3,5.1,6.1,5.2c0,0,6,0.3,5.8-5.4l0,0v-7.4l0,0c0,0-0.1-0.9,0.8-0.9l0,0h0.3l0,0c0,0,0.3,0,0.3-0.4l0,0v-0.4l0,0
		c0,0,0.1-0.5-0.4-0.5l0,0h-3.5l0,0c0,0-0.5,0-0.5,0.4l0,0l0,0.3l0,0c0,0-0.1,0.6,0.5,0.6c0,0,0.9-0.2,1,1.1l0,0v7.3l0,0
		c0,0,0.4,3.8-3.1,3.8c0,0-3.8,0.7-3.8-4l0,0v-7.3l0,0c0,0,0.1-0.8,0.8-0.8l0,0h0.2l0,0c0,0,0.3,0.1,0.4-0.4l0,0v-0.4l0,0
		c0,0,0.1-0.4-0.3-0.5l0,0H172.3L172.3,36.4L172.3,36.4z"/>
	<path class="st0" d="M199.3,36.4c0,0-0.4,0-0.6,0.4l0,0l-0.9,2.2l0,0c0,0-0.2,0.5,0.3,0.5l0,0h0.7l0,0c0,0,0.3,0.1,0.5-0.4l0,0
		l0.5-1l0,0c0,0,0.2-0.3,0.7-0.3l0,0h2.1l0,0c0,0,0.6-0.1,0.6,0.8l0,0v10.6l0,0c0,0,0.1,0.7-0.3,0.8l0,0h-0.6l0,0c0,0-0.3,0-0.3,0.4
		l0,0v0.6l0,0c0,0-0.1,0.4,0.4,0.4l0,0h5.4l0,0c0,0,0.4,0.1,0.4-0.4l0,0v-0.4l0,0c0,0,0.1-0.5-0.3-0.5l0,0l-0.6,0l0,0
		c0,0-0.7,0.2-0.6-1l0,0V38.6l0,0c0,0-0.2-0.8,0.6-0.8l0,0h2.1l0,0c0,0,0.4-0.1,0.7,0.4l0,0l0.5,0.9l0,0c0,0,0.2,0.4,0.7,0.4l0,0
		h0.7l0,0c0,0,0.5,0,0.3-0.6l0,0l-0.9-2.2l0,0c0,0,0-0.3-0.7-0.3l0,0H199.3L199.3,36.4L199.3,36.4z"/>
</g>
</svg>
